<svg viewBox="0 0 200 150" xmlns="http://www.w3.org/2000/svg">
  <defs>
    <!-- Gradient for server -->
    <linearGradient id="serverGradient" x1="0%" y1="0%" x2="100%" y2="100%">
      <stop offset="0%" style="stop-color:#374151;stop-opacity:1" />
      <stop offset="100%" style="stop-color:#1f2937;stop-opacity:1" />
    </linearGradient>
    
    <!-- Shadow filter -->
    <filter id="shadow" x="-50%" y="-50%" width="200%" height="200%">
      <feDropShadow dx="2" dy="4" stdDeviation="3" flood-color="#00000020"/>
    </filter>
    
    <!-- Error glow -->
    <filter id="errorGlow">
      <feGaussianBlur stdDeviation="2" result="coloredBlur"/>
      <feMerge> 
        <feMergeNode in="coloredBlur"/>
        <feMergeNode in="SourceGraphic"/>
      </feMerge>
    </filter>
  </defs>
  
  <!-- Background circle -->
  <circle cx="100" cy="75" r="70" fill="#fef2f2" stroke="#fecaca" stroke-width="1" filter="url(#shadow)"/>
  
  <!-- Server tower -->
  <g transform="translate(100, 75)" filter="url(#shadow)">
    <!-- Main server body -->
    <rect x="-25" y="-40" width="50" height="70" rx="6" fill="url(#serverGradient)" stroke="#4b5563" stroke-width="1.5"/>
    
    <!-- Server panels -->
    <rect x="-20" y="-30" width="40" height="12" rx="2" fill="#6b7280" opacity="0.8"/>
    <rect x="-20" y="-15" width="40" height="12" rx="2" fill="#6b7280" opacity="0.8"/>
    <rect x="-20" y="0" width="40" height="12" rx="2" fill="#6b7280" opacity="0.8"/>
    
    <!-- Power buttons/LEDs -->
    <circle cx="-15" cy="-24" r="2" fill="#ef4444"/>
    <circle cx="-10" cy="-24" r="2" fill="#ef4444"/>
    <circle cx="-5" cy="-24" r="2" fill="#6b7280"/>
    
    <circle cx="-15" cy="-9" r="2" fill="#ef4444"/>
    <circle cx="-10" cy="-9" r="2" fill="#6b7280"/>
    <circle cx="-5" cy="-9" r="2" fill="#6b7280"/>
    
    <circle cx="-15" cy="6" r="2" fill="#ef4444"/>
    <circle cx="-10" cy="6" r="2" fill="#ef4444"/>
    <circle cx="-5" cy="6" r="2" fill="#ef4444"/>
    
    <!-- Ventilation grills -->
    <g opacity="0.6">
      <line x1="5" y1="-28" x2="15" y2="-28" stroke="#4b5563" stroke-width="1"/>
      <line x1="5" y1="-25" x2="15" y2="-25" stroke="#4b5563" stroke-width="1"/>
      <line x1="5" y1="-22" x2="15" y2="-22" stroke="#4b5563" stroke-width="1"/>
      
      <line x1="5" y1="-13" x2="15" y2="-13" stroke="#4b5563" stroke-width="1"/>
      <line x1="5" y1="-10" x2="15" y2="-10" stroke="#4b5563" stroke-width="1"/>
      <line x1="5" y1="-7" x2="15" y2="-7" stroke="#4b5563" stroke-width="1"/>
    </g>
  </g>
  
  <!-- Error sparks/lightning -->
  <g transform="translate(100, 75)" filter="url(#errorGlow)">
    <path d="M -35,-20 L -30,-10 L -40,-5 L -25,5 L -35,15 L -25,10 L -30,20" 
          fill="none" stroke="#fbbf24" stroke-width="2" stroke-linecap="round"/>
    <path d="M 35,-15 L 30,-5 L 40,0 L 25,10 L 35,20 L 25,15 L 30,25" 
          fill="none" stroke="#fbbf24" stroke-width="2" stroke-linecap="round"/>
  </g>
  
  <!-- Smoke/steam effect -->
  <g opacity="0.4">
    <ellipse cx="85" cy="35" rx="3" ry="8" fill="#9ca3af"/>
    <ellipse cx="90" cy="30" rx="2" ry="6" fill="#9ca3af"/>
    <ellipse cx="110" cy="32" rx="2.5" ry="7" fill="#9ca3af"/>
    <ellipse cx="115" cy="28" rx="2" ry="5" fill="#9ca3af"/>
  </g>
  
  <!-- Warning triangles -->
  <polygon points="60,120 65,110 70,120" fill="#f59e0b" opacity="0.6"/>
  <polygon points="130,125 135,115 140,125" fill="#f59e0b" opacity="0.6"/>
</svg>