<svg viewBox="0 0 200 150" xmlns="http://www.w3.org/2000/svg">
  <defs>
    <!-- Gradient for document -->
    <linearGradient id="docGradient" x1="0%" y1="0%" x2="100%" y2="100%">
      <stop offset="0%" style="stop-color:#ffffff;stop-opacity:1" />
      <stop offset="100%" style="stop-color:#f1f5f9;stop-opacity:1" />
    </linearGradient>

    <!-- Shadow filter -->
    <filter id="shadow" x="-50%" y="-50%" width="200%" height="200%">
      <feDropShadow dx="2" dy="4" stdDeviation="3" flood-color="#00000015"/>
    </filter>

    <!-- Glow effect for X -->
    <filter id="glow">
      <feGaussianBlur stdDeviation="2" result="coloredBlur"/>
      <feMerge>
        <feMergeNode in="coloredBlur"/>
        <feMergeNode in="SourceGraphic"/>
      </feMerge>
    </filter>
  </defs>

  <!-- Background circle -->
  <circle cx="100" cy="75" r="70" fill="#f8fafc" stroke="#e2e8f0" stroke-width="1" filter="url(#shadow)"/>

  <!-- Document with gradient and shadow -->
  <g transform="translate(100, 75)" filter="url(#shadow)">
    <!-- Main document -->
    <rect x="-35" y="-45" width="55" height="75" rx="6" fill="url(#docGradient)" stroke="#cbd5e1" stroke-width="1.5"/>

    <!-- Folded corner -->
    <polygon points="-35,-25 -15,-45 -15,-25" fill="#e2e8f0" stroke="#cbd5e1" stroke-width="1.5"/>
    <line x1="-35" y1="-25" x2="-15" y2="-25" stroke="#cbd5e1" stroke-width="1.5"/>

    <!-- Document content lines with fade effect -->
    <g opacity="0.6">
      <line x1="-25" y1="-10" x2="-5" y2="-10" stroke="#94a3b8" stroke-width="1.5" stroke-linecap="round"/>
      <line x1="5" y1="-10" x2="15" y2="-10" stroke="#94a3b8" stroke-width="1.5" stroke-linecap="round"/>

      <line x1="-25" y1="0" x2="0" y2="0" stroke="#94a3b8" stroke-width="1.5" stroke-linecap="round"/>
      <line x1="8" y1="0" x2="15" y2="0" stroke="#94a3b8" stroke-width="1.5" stroke-linecap="round"/>

      <line x1="-25" y1="10" x2="-10" y2="10" stroke="#94a3b8" stroke-width="1.5" stroke-linecap="round"/>
      <line x1="-2" y1="10" x2="15" y2="10" stroke="#94a3b8" stroke-width="1.5" stroke-linecap="round"/>
    </g>
  </g>

  <!-- Stylized X mark with glow -->
  <g transform="translate(100, 75)" filter="url(#glow)">
    <line x1="-20" y1="-20" x2="20" y2="20" stroke="#ef4444" stroke-width="4" stroke-linecap="round"/>
    <line x1="-20" y1="20" x2="20" y2="-20" stroke="#ef4444" stroke-width="4" stroke-linecap="round"/>
  </g>

  <!-- Decorative dots -->
  <circle cx="40" cy="40" r="2" fill="#cbd5e1" opacity="0.5"/>
  <circle cx="160" cy="110" r="1.5" fill="#cbd5e1" opacity="0.3"/>
  <circle cx="30" cy="120" r="1" fill="#cbd5e1" opacity="0.4"/>
</svg>
